<svg width="891.4043457031249px" height="121.39999999999999px" xmlns="http://www.w3.org/2000/svg" viewBox="-195.70217285156247 14.300000000000004 891.4043457031249 121.39999999999999" style="background: rgb(200, 71, 44);" preserveAspectRatio="xMidYMid"><defs><filter id="editing-neon" x="-100%" y="-100%" width="300%" height="300%"><feFlood flood-color="#412a1e" result="flood"></feFlood><feComposite operator="in" in="flood" in2="SourceAlpha" result="color"></feComposite><feFlood flood-color="#412a1e" result="flood2"></feFlood><feComposite operator="in" in="flood2" in2="SourceAlpha" result="color2"></feComposite><feMorphology operator="dilate" radius="2" in="color" result="dilate"></feMorphology><feGaussianBlur stdDeviation="6" in="color" result="blur1"></feGaussianBlur><feGaussianBlur stdDeviation="2.5" in="color" result="blur2"></feGaussianBlur><feGaussianBlur stdDeviation="1" in="SourceAlpha" result="blur3"></feGaussianBlur><feGaussianBlur stdDeviation="6" in="dilate" result="blur4"></feGaussianBlur><feConvolveMatrix in="color2" result="conv" order="3,3" divisor="1" kernelMatrix="1 1 1  1 1 1  1 1 1"></feConvolveMatrix><feMerge><feMergeNode in="blur1"></feMergeNode><feMergeNode in="blur2"></feMergeNode><feMergeNode in="blur4"></feMergeNode><feMergeNode in="blur3"></feMergeNode><feMergeNode in="blur3"></feMergeNode><feMergeNode in="blur3"></feMergeNode><feMergeNode in="blur3"></feMergeNode><feMergeNode in="conv"></feMergeNode><feMergeNode in="SourceGraphic"></feMergeNode></feMerge></filter></defs><g filter="url(#editing-neon)"><g transform="translate(-69.93758177757263, 99)"><path d="M42.62-26.56L42.62-26.56L42.62-26.56Q42.62 0.70 13.06 0.70L13.06 0.70L13.06 0.70Q8.32 0.70 0.51-0.45L0.51-0.45L7.68-38.27L7.68-38.27Q8.19-40.83 8.51-42.30L8.51-42.30L8.51-42.30Q18.24-43.01 22.56-43.01L22.56-43.01L22.56-43.01Q26.88-43.01 30.85-42.11L30.85-42.11L30.85-42.11Q34.82-41.22 37.44-39.23L37.44-39.23L37.44-39.23Q42.62-35.33 42.62-26.56ZM29.44-28.93L29.44-28.93L29.44-28.93Q29.44-38.46 22.59-38.46L22.59-38.46L21.95-38.46L21.95-38.46Q21.63-38.46 21.31-38.40L21.31-38.40L14.72-4.03L14.72-4.03Q14.98-3.90 15.23-3.90L15.23-3.90L15.74-3.90L15.74-3.90Q18.11-3.90 20.58-5.38L20.58-5.38L20.58-5.38Q23.04-6.85 24.96-9.86L24.96-9.86L24.96-9.86Q29.44-16.83 29.44-28.93ZM48.67-1.92L48.67-1.92L48.67-1.92Q47.17-3.58 46.50-6.21L46.50-6.21L46.50-6.21Q45.82-8.83 45.82-13.12L45.82-13.12L45.82-13.12Q45.82-17.41 47.30-21.31L47.30-21.31L47.30-21.31Q48.77-25.22 51.46-28.03L51.46-28.03L51.46-28.03Q56.96-33.92 66.05-33.92L66.05-33.92L66.05-33.92Q69.31-33.92 71.68-32.83L71.68-32.83L82.62-33.92L77.89-8.96L77.89-8.96Q77.70-8.19 77.70-6.78L77.70-6.78L77.70-6.78Q77.70-5.38 78.56-4.48L78.56-4.48L78.56-4.48Q79.42-3.58 80.70-3.46L80.70-3.46L80.70-3.46Q80.06-1.28 77.73 0L77.73 0L77.73 0Q75.39 1.28 72.77 1.28L72.77 1.28L72.77 1.28Q70.14 1.28 68.38 0.29L68.38 0.29L68.38 0.29Q66.62-0.70 66.11-2.37L66.11-2.37L66.11-2.37Q65.09-0.77 62.91 0.26L62.91 0.26L62.91 0.26Q60.74 1.28 57.82 1.28L57.82 1.28L57.82 1.28Q54.91 1.28 52.54 0.51L52.54 0.51L52.54 0.51Q50.18-0.26 48.67-1.92ZM62.18-27.90L62.18-27.90L62.18-27.90Q61.44-26.75 60.80-24.80L60.80-24.80L60.80-24.80Q60.16-22.85 59.10-17.63L59.10-17.63L59.10-17.63Q58.05-12.42 58.05-8.70L58.05-8.70L58.05-8.70Q58.05-4.99 58.62-3.90L58.62-3.90L58.62-3.90Q59.20-2.82 60.22-2.82L60.22-2.82L60.22-2.82Q62.27-2.82 63.78-4.77L63.78-4.77L63.78-4.77Q65.28-6.72 65.86-10.18L65.86-10.18L69.25-28.93L69.25-28.93Q67.90-30.08 66.34-30.08L66.34-30.08L66.34-30.08Q64.77-30.08 63.84-29.57L63.84-29.57L63.84-29.57Q62.91-29.06 62.18-27.90ZM87.10-6.40L87.10-6.40L87.10-6.40Q87.10-8.13 88-12.48L88-12.48L91.39-29.76L87.62-29.76L87.87-31.68L87.87-31.68Q95.55-33.98 102.98-39.62L102.98-39.62L106.05-39.62L104.51-32.64L109.50-32.64L108.93-29.76L104-29.76L100.74-12.48L100.74-12.48Q99.90-8.51 99.90-7.17L99.90-7.17L99.90-7.17Q99.90-4.10 102.59-3.46L102.59-3.46L102.59-3.46Q101.95-1.28 99.65 0L99.65 0L99.65 0Q97.34 1.28 94.08 1.28L94.08 1.28L94.08 1.28Q90.82 1.28 88.96-0.77L88.96-0.77L88.96-0.77Q87.10-2.82 87.10-6.40ZM111.71-1.92L111.71-1.92L111.71-1.92Q110.21-3.58 109.54-6.21L109.54-6.21L109.54-6.21Q108.86-8.83 108.86-13.12L108.86-13.12L108.86-13.12Q108.86-17.41 110.34-21.31L110.34-21.31L110.34-21.31Q111.81-25.22 114.50-28.03L114.50-28.03L114.50-28.03Q120-33.92 129.09-33.92L129.09-33.92L129.09-33.92Q132.35-33.92 134.72-32.83L134.72-32.83L145.66-33.92L140.93-8.96L140.93-8.96Q140.74-8.19 140.74-6.78L140.74-6.78L140.74-6.78Q140.74-5.38 141.60-4.48L141.60-4.48L141.60-4.48Q142.46-3.58 143.74-3.46L143.74-3.46L143.74-3.46Q143.10-1.28 140.77 0L140.77 0L140.77 0Q138.43 1.28 135.81 1.28L135.81 1.28L135.81 1.28Q133.18 1.28 131.42 0.29L131.42 0.29L131.42 0.29Q129.66-0.70 129.15-2.37L129.15-2.37L129.15-2.37Q128.13-0.77 125.95 0.26L125.95 0.26L125.95 0.26Q123.78 1.28 120.86 1.28L120.86 1.28L120.86 1.28Q117.95 1.28 115.58 0.51L115.58 0.51L115.58 0.51Q113.22-0.26 111.71-1.92ZM125.22-27.90L125.22-27.90L125.22-27.90Q124.48-26.75 123.84-24.80L123.84-24.80L123.84-24.80Q123.20-22.85 122.14-17.63L122.14-17.63L122.14-17.63Q121.09-12.42 121.09-8.70L121.09-8.70L121.09-8.70Q121.09-4.99 121.66-3.90L121.66-3.90L121.66-3.90Q122.24-2.82 123.26-2.82L123.26-2.82L123.26-2.82Q125.31-2.82 126.82-4.77L126.82-4.77L126.82-4.77Q128.32-6.72 128.90-10.18L128.90-10.18L132.29-28.93L132.29-28.93Q130.94-30.08 129.38-30.08L129.38-30.08L129.38-30.08Q127.81-30.08 126.88-29.57L126.88-29.57L126.88-29.57Q125.95-29.06 125.22-27.90ZM187.26-29.57L187.26-29.57L187.26-29.57Q188.22-31.49 188.22-33.28L188.22-33.28L188.22-33.28Q188.22-35.07 188.03-36.06L188.03-36.06L188.03-36.06Q187.84-37.06 187.39-37.82L187.39-37.82L187.39-37.82Q186.43-39.49 184.51-39.49L184.51-39.49L184.51-39.49Q182.14-39.49 180.22-37.76L180.22-37.76L180.22-37.76Q178.18-35.97 178.18-33.15L178.18-33.15L178.18-33.15Q178.18-31.36 179.42-29.98L179.42-29.98L179.42-29.98Q180.67-28.61 182.59-27.33L182.59-27.33L182.59-27.33Q184.51-26.05 186.69-24.77L186.69-24.77L186.69-24.77Q188.86-23.49 190.78-21.95L190.78-21.95L190.78-21.95Q195.20-18.43 195.20-13.70L195.20-13.70L195.20-13.70Q195.20-10.50 193.50-7.78L193.50-7.78L193.50-7.78Q191.81-5.06 188.99-3.07L188.99-3.07L188.99-3.07Q182.85 1.28 174.72 1.28L174.72 1.28L174.72 1.28Q168.13 1.28 164.74-0.86L164.74-0.86L164.74-0.86Q161.34-3.01 161.34-6.27L161.34-6.27L161.34-6.27Q161.34-12.10 165.89-13.57L165.89-13.57L165.89-13.57Q167.17-14.02 169.12-14.02L169.12-14.02L169.12-14.02Q171.07-14.02 173.31-13.18L173.31-13.18L173.31-13.18Q172.29-10.56 172.29-8.19L172.29-8.19L172.29-8.19Q172.29-3.07 175.94-3.07L175.94-3.07L175.94-3.07Q178.30-3.07 180.26-4.80L180.26-4.80L180.26-4.80Q182.21-6.53 182.21-8.48L182.21-8.48L182.21-8.48Q182.21-10.43 180.96-11.84L180.96-11.84L180.96-11.84Q179.71-13.25 177.86-14.37L177.86-14.37L177.86-14.37Q176-15.49 173.86-16.58L173.86-16.58L173.86-16.58Q171.71-17.66 169.86-19.20L169.86-19.20L169.86-19.20Q165.50-22.72 165.50-28.35L165.50-28.35L165.50-28.35Q165.50-32 167.30-34.85L167.30-34.85L167.30-34.85Q169.09-37.70 171.97-39.62L171.97-39.62L171.97-39.62Q177.73-43.52 184.80-43.52L184.80-43.52L184.80-43.52Q191.87-43.52 195.30-41.41L195.30-41.41L195.30-41.41Q198.72-39.30 198.72-35.71L198.72-35.71L198.72-35.71Q198.72-32.58 196.29-30.59L196.29-30.59L196.29-30.59Q194.18-28.93 191.62-28.93L191.62-28.93L191.62-28.93Q189.06-28.93 187.26-29.57ZM231.49-26.62L231.49-26.62L231.49-26.62Q231.49-23.94 229.25-22.27L229.25-22.27L229.25-22.27Q227.01-20.61 223.36-20.61L223.36-20.61L223.36-20.61Q221.82-20.61 220.93-21.06L220.93-21.06L220.93-21.06Q221.63-22.72 221.86-24.80L221.86-24.80L221.86-24.80Q222.08-26.88 222.08-27.46L222.08-27.46L222.08-27.46Q222.08-30.14 220.22-30.14L220.22-30.14L220.22-30.14Q218.94-30.14 217.50-28.54L217.50-28.54L217.50-28.54Q216.06-26.94 214.85-24.45L214.85-24.45L214.85-24.45Q212.16-18.69 212.16-12.86L212.16-12.86L212.16-12.86Q212.16-9.66 213.38-8.22L213.38-8.22L213.38-8.22Q214.59-6.78 217.28-6.78L217.28-6.78L217.28-6.78Q220.99-6.78 223.94-9.86L223.94-9.86L223.94-9.86Q224.77-10.82 225.22-11.90L225.22-11.90L225.22-11.90Q227.65-10.62 227.65-7.10L227.65-7.10L227.65-7.10Q227.65-3.52 223.68-1.15L223.68-1.15L223.68-1.15Q219.58 1.28 213.06 1.28L213.06 1.28L213.06 1.28Q200.06 1.28 200.06-12.48L200.06-12.48L200.06-12.48Q200.06-22.53 205.76-28.29L205.76-28.29L205.76-28.29Q211.26-33.92 221.38-33.92L221.38-33.92L221.38-33.92Q231.49-33.92 231.49-26.62ZM248.58-3.52L248.58-3.52L248.58-3.52Q246.59 1.28 240.26 1.28L240.26 1.28L240.26 1.28Q236.99 1.28 234.94-0.96L234.94-0.96L234.94-0.96Q233.22-2.94 233.22-4.93L233.22-4.93L233.22-4.93Q233.22-10.11 235.58-20.22L235.58-20.22L237.95-32.64L250.94-33.92L247.04-13.70L247.04-13.70Q245.95-8.96 245.95-7.30L245.95-7.30L245.95-7.30Q245.95-3.65 248.58-3.52ZM239.10-41.54L239.10-41.54L239.10-41.54Q239.10-44.03 241.18-45.38L241.18-45.38L241.18-45.38Q243.26-46.72 246.27-46.72L246.27-46.72L246.27-46.72Q249.28-46.72 251.10-45.38L251.10-45.38L251.10-45.38Q252.93-44.03 252.93-41.54L252.93-41.54L252.93-41.54Q252.93-39.04 250.91-37.76L250.91-37.76L250.91-37.76Q248.90-36.48 245.89-36.48L245.89-36.48L245.89-36.48Q242.88-36.48 240.99-37.76L240.99-37.76L240.99-37.76Q239.10-39.04 239.10-41.54ZM279.94-10.82L279.94-10.82L279.94-10.82Q281.54-9.73 281.54-7.33L281.54-7.33L281.54-7.33Q281.54-4.93 280.32-3.39L280.32-3.39L280.32-3.39Q279.10-1.86 277.12-0.83L277.12-0.83L277.12-0.83Q273.02 1.28 268.61 1.28L268.61 1.28L268.61 1.28Q264.19 1.28 261.60 0.32L261.60 0.32L261.60 0.32Q259.01-0.64 257.28-2.43L257.28-2.43L257.28-2.43Q253.89-5.82 253.89-12.03L253.89-12.03L253.89-12.03Q253.89-21.70 259.14-27.58L259.14-27.58L259.14-27.58Q264.77-33.92 274.56-33.92L274.56-33.92L274.56-33.92Q280.64-33.92 283.65-31.36L283.65-31.36L283.65-31.36Q285.89-29.44 285.89-26.30L285.89-26.30L285.89-26.30Q285.89-15.04 266.43-15.04L266.43-15.04L266.43-15.04Q266.18-13.38 266.18-11.97L266.18-11.97L266.18-11.97Q266.18-9.02 267.49-7.90L267.49-7.90L267.49-7.90Q268.80-6.78 271.23-6.78L271.23-6.78L271.23-6.78Q273.66-6.78 276.26-7.90L276.26-7.90L276.26-7.90Q278.85-9.02 279.94-10.82ZM266.88-17.79L266.88-17.79L266.88-17.79Q271.42-17.79 274.05-20.61L274.05-20.61L274.05-20.61Q276.67-23.30 276.67-27.58L276.67-27.58L276.67-27.58Q276.67-29.06 276.13-29.86L276.13-29.86L276.13-29.86Q275.58-30.66 274.50-30.66L274.50-30.66L274.50-30.66Q273.41-30.66 272.48-30.24L272.48-30.24L272.48-30.24Q271.55-29.82 270.59-28.42L270.59-28.42L270.59-28.42Q268.22-25.22 266.88-17.79ZM315.14 1.28L315.14 1.28L315.14 1.28Q307.39 1.28 307.39-4.74L307.39-4.74L307.39-4.74Q307.46-6.40 307.97-9.22L307.97-9.22L309.12-15.10L309.12-15.10Q310.85-23.42 310.85-25.28L310.85-25.28L310.85-25.28Q310.85-28.99 308.67-28.99L308.67-28.99L308.67-28.99Q305.02-28.99 303.10-19.46L303.10-19.46L299.33 0L286.46 1.28L293.12-32.70L303.62-33.92L302.59-27.65L302.59-27.65Q305.60-33.92 314.82-33.92L314.82-33.92L314.82-33.92Q319.30-33.92 321.18-32.03L321.18-32.03L321.18-32.03Q323.07-30.14 323.07-25.92L323.07-25.92L323.07-25.92Q323.07-21.95 321.02-12.67L321.02-12.67L321.02-12.67Q320.06-8.51 320.06-6.94L320.06-6.94L320.06-6.94Q320.06-5.38 320.93-4.48L320.93-4.48L320.93-4.48Q321.79-3.58 323.07-3.46L323.07-3.46L323.07-3.46Q322.43-1.28 320.22 0L320.22 0L320.22 0Q318.02 1.28 315.14 1.28ZM359.62-26.62L359.62-26.62L359.62-26.62Q359.62-23.94 357.38-22.27L357.38-22.27L357.38-22.27Q355.14-20.61 351.49-20.61L351.49-20.61L351.49-20.61Q349.95-20.61 349.06-21.06L349.06-21.06L349.06-21.06Q349.76-22.72 349.98-24.80L349.98-24.80L349.98-24.80Q350.21-26.88 350.21-27.46L350.21-27.46L350.21-27.46Q350.21-30.14 348.35-30.14L348.35-30.14L348.35-30.14Q347.07-30.14 345.63-28.54L345.63-28.54L345.63-28.54Q344.19-26.94 342.98-24.45L342.98-24.45L342.98-24.45Q340.29-18.69 340.29-12.86L340.29-12.86L340.29-12.86Q340.29-9.66 341.50-8.22L341.50-8.22L341.50-8.22Q342.72-6.78 345.41-6.78L345.41-6.78L345.41-6.78Q349.12-6.78 352.06-9.86L352.06-9.86L352.06-9.86Q352.90-10.82 353.34-11.90L353.34-11.90L353.34-11.90Q355.78-10.62 355.78-7.10L355.78-7.10L355.78-7.10Q355.78-3.52 351.81-1.15L351.81-1.15L351.81-1.15Q347.71 1.28 341.18 1.28L341.18 1.28L341.18 1.28Q328.19 1.28 328.19-12.48L328.19-12.48L328.19-12.48Q328.19-22.53 333.89-28.29L333.89-28.29L333.89-28.29Q339.39-33.92 349.50-33.92L349.50-33.92L349.50-33.92Q359.62-33.92 359.62-26.62ZM387.26-10.82L387.26-10.82L387.26-10.82Q388.86-9.73 388.86-7.33L388.86-7.33L388.86-7.33Q388.86-4.93 387.65-3.39L387.65-3.39L387.65-3.39Q386.43-1.86 384.45-0.83L384.45-0.83L384.45-0.83Q380.35 1.28 375.94 1.28L375.94 1.28L375.94 1.28Q371.52 1.28 368.93 0.32L368.93 0.32L368.93 0.32Q366.34-0.64 364.61-2.43L364.61-2.43L364.61-2.43Q361.22-5.82 361.22-12.03L361.22-12.03L361.22-12.03Q361.22-21.70 366.46-27.58L366.46-27.58L366.46-27.58Q372.10-33.92 381.89-33.92L381.89-33.92L381.89-33.92Q387.97-33.92 390.98-31.36L390.98-31.36L390.98-31.36Q393.22-29.44 393.22-26.30L393.22-26.30L393.22-26.30Q393.22-15.04 373.76-15.04L373.76-15.04L373.76-15.04Q373.50-13.38 373.50-11.97L373.50-11.97L373.50-11.97Q373.50-9.02 374.82-7.90L374.82-7.90L374.82-7.90Q376.13-6.78 378.56-6.78L378.56-6.78L378.56-6.78Q380.99-6.78 383.58-7.90L383.58-7.90L383.58-7.90Q386.18-9.02 387.26-10.82ZM374.21-17.79L374.21-17.79L374.21-17.79Q378.75-17.79 381.38-20.61L381.38-20.61L381.38-20.61Q384-23.30 384-27.58L384-27.58L384-27.58Q384-29.06 383.46-29.86L383.46-29.86L383.46-29.86Q382.91-30.66 381.82-30.66L381.82-30.66L381.82-30.66Q380.74-30.66 379.81-30.24L379.81-30.24L379.81-30.24Q378.88-29.82 377.92-28.42L377.92-28.42L377.92-28.42Q375.55-25.22 374.21-17.79ZM427.71-22.46L427.71-22.46L427.71-22.46Q428.61-24.83 428.61-26.88L428.61-26.88L428.61-26.88Q428.61-30.66 425.54-30.66L425.54-30.66L425.54-30.66Q423.94-30.66 422.62-29.22L422.62-29.22L422.62-29.22Q421.31-27.78 421.31-25.98L421.31-25.98L421.31-25.98Q421.31-24.70 422.34-23.68L422.34-23.68L422.34-23.68Q423.81-22.27 427.58-19.97L427.58-19.97L427.58-19.97Q431.36-17.66 432.80-15.78L432.80-15.78L432.80-15.78Q434.24-13.89 434.24-11.30L434.24-11.30L434.24-11.30Q434.24-8.70 432.99-6.34L432.99-6.34L432.99-6.34Q431.74-3.97 429.50-2.30L429.50-2.30L429.50-2.30Q424.70 1.28 417.02 1.28L417.02 1.28L417.02 1.28Q412.86 1.28 409.66-0.90L409.66-0.90L409.66-0.90Q406.46-3.01 406.46-5.50L406.46-5.50L406.46-5.50Q406.46-8 408.29-9.47L408.29-9.47L408.29-9.47Q410.11-10.94 412.80-10.94L412.80-10.94L412.80-10.94Q415.49-10.94 417.15-9.92L417.15-9.92L417.15-9.92Q416.32-7.81 416.32-6.40L416.32-6.40L416.32-6.40Q416.32-2.18 419.90-2.18L419.90-2.18L419.90-2.18Q421.44-2.18 422.46-3.14L422.46-3.14L422.46-3.14Q423.49-4.10 423.49-5.76L423.49-5.76L423.49-5.76Q423.49-9.02 417.98-12.48L417.98-12.48L417.98-12.48Q413.50-15.42 412.48-16.58L412.48-16.58L412.48-16.58Q410.75-18.62 410.75-21.18L410.75-21.18L410.75-21.18Q410.75-23.74 411.97-26.18L411.97-26.18L411.97-26.18Q413.18-28.61 415.42-30.34L415.42-30.34L415.42-30.34Q420.10-33.92 428.22-33.92L428.22-33.92L428.22-33.92Q432.38-33.92 434.85-32.26L434.85-32.26L434.85-32.26Q437.31-30.59 437.31-27.78L437.31-27.78L437.31-27.78Q437.31-24.96 435.62-23.36L435.62-23.36L435.62-23.36Q433.92-21.76 430.85-21.76L430.85-21.76L430.85-21.76Q428.74-21.76 427.71-22.46ZM440.70-6.40L440.70-6.40L440.70-6.40Q440.70-8.13 441.60-12.48L441.60-12.48L444.99-29.76L441.22-29.76L441.47-31.68L441.47-31.68Q449.15-33.98 456.58-39.62L456.58-39.62L459.65-39.62L458.11-32.64L463.10-32.64L462.53-29.76L457.60-29.76L454.34-12.48L454.34-12.48Q453.50-8.51 453.50-7.17L453.50-7.17L453.50-7.17Q453.50-4.10 456.19-3.46L456.19-3.46L456.19-3.46Q455.55-1.28 453.25 0L453.25 0L453.25 0Q450.94 1.28 447.68 1.28L447.68 1.28L447.68 1.28Q444.42 1.28 442.56-0.77L442.56-0.77L442.56-0.77Q440.70-2.82 440.70-6.40ZM483.33-2.69L483.33-2.69L483.33-2.69Q480.26 1.28 472.64 1.28L472.64 1.28L472.64 1.28Q468.67 1.28 465.79-1.12L465.79-1.12L465.79-1.12Q462.91-3.52 462.91-6.98L462.91-6.98L462.91-6.98Q462.91-8.90 463.10-9.86L463.10-9.86L467.39-32.64L480.38-33.92L475.71-9.22L475.71-9.22Q475.46-7.81 475.46-6.98L475.46-6.98L475.46-6.98Q475.46-3.26 477.70-3.26L477.70-3.26L477.70-3.26Q480.19-3.26 481.98-6.66L481.98-6.66L481.98-6.66Q482.56-7.74 482.82-9.15L482.82-9.15L487.36-32.64L499.97-33.92L495.23-8.96L495.23-8.96Q495.04-8 495.04-6.98L495.04-6.98L495.04-6.98Q495.04-5.95 495.62-4.83L495.62-4.83L495.62-4.83Q496.19-3.71 498.05-3.46L498.05-3.46L498.05-3.46Q497.66-1.92 496.32-0.90L496.32-0.90L496.32-0.90Q493.50 1.28 490.46 1.28L490.46 1.28L490.46 1.28Q487.42 1.28 485.63 0.19L485.63 0.19L485.63 0.19Q483.84-0.90 483.33-2.69ZM523.33-33.92L523.33-33.92L523.33-33.92Q525.63-33.92 527.42-33.41L527.42-33.41L527.42-33.41Q527.49-33.66 527.62-34.37L527.62-34.37L527.94-36.35L527.94-36.35Q528.19-37.63 528.58-39.74L528.58-39.74L529.60-44.80L542.34-46.08L535.23-8.96L535.23-8.96Q535.17-8.58 535.17-7.94L535.17-7.94L535.17-6.91L535.17-6.91Q535.17-5.50 535.87-4.45L535.87-4.45L535.87-4.45Q536.58-3.39 537.73-3.39L537.73-3.39L537.73-3.39Q536.45-0.38 532.54 0.90L532.54 0.90L532.54 0.90Q531.20 1.28 529.31 1.28L529.31 1.28L529.31 1.28Q527.42 1.28 525.70 0.29L525.70 0.29L525.70 0.29Q523.97-0.70 523.46-2.37L523.46-2.37L523.46-2.37Q522.43-0.70 520.38 0.29L520.38 0.29L520.38 0.29Q518.34 1.28 515.36 1.28L515.36 1.28L515.36 1.28Q512.38 1.28 509.92 0.51L509.92 0.51L509.92 0.51Q507.46-0.26 505.92-1.92L505.92-1.92L505.92-1.92Q503.10-5.18 503.10-12.61L503.10-12.61L503.10-12.61Q503.10-22.21 508.74-28.03L508.74-28.03L508.74-28.03Q514.37-33.92 523.33-33.92ZM522.88-30.08L522.88-30.08L522.88-30.08Q520.51-30.08 519.23-27.52L519.23-27.52L519.23-27.52Q517.95-24.96 516.64-18.62L516.64-18.62L516.64-18.62Q515.33-12.29 515.33-6.59L515.33-6.59L515.33-6.59Q515.33-2.69 517.63-2.69L517.63-2.69L517.63-2.69Q519.68-2.69 521.12-4.74L521.12-4.74L521.12-4.74Q522.56-6.78 523.14-10.18L523.14-10.18L526.59-28.93L526.59-28.93Q525.25-30.08 522.88-30.08ZM569.09-10.82L569.09-10.82L569.09-10.82Q570.69-9.73 570.69-7.33L570.69-7.33L570.69-7.33Q570.69-4.93 569.47-3.39L569.47-3.39L569.47-3.39Q568.26-1.86 566.27-0.83L566.27-0.83L566.27-0.83Q562.18 1.28 557.76 1.28L557.76 1.28L557.76 1.28Q553.34 1.28 550.75 0.32L550.75 0.32L550.75 0.32Q548.16-0.64 546.43-2.43L546.43-2.43L546.43-2.43Q543.04-5.82 543.04-12.03L543.04-12.03L543.04-12.03Q543.04-21.70 548.29-27.58L548.29-27.58L548.29-27.58Q553.92-33.92 563.71-33.92L563.71-33.92L563.71-33.92Q569.79-33.92 572.80-31.36L572.80-31.36L572.80-31.36Q575.04-29.44 575.04-26.30L575.04-26.30L575.04-26.30Q575.04-15.04 555.58-15.04L555.58-15.04L555.58-15.04Q555.33-13.38 555.33-11.97L555.33-11.97L555.33-11.97Q555.33-9.02 556.64-7.90L556.64-7.90L556.64-7.90Q557.95-6.78 560.38-6.78L560.38-6.78L560.38-6.78Q562.82-6.78 565.41-7.90L565.41-7.90L565.41-7.90Q568.00-9.02 569.09-10.82ZM556.03-17.79L556.03-17.79L556.03-17.79Q560.58-17.79 563.20-20.61L563.20-20.61L563.20-20.61Q565.82-23.30 565.82-27.58L565.82-27.58L565.82-27.58Q565.82-29.06 565.28-29.86L565.28-29.86L565.28-29.86Q564.74-30.66 563.65-30.66L563.65-30.66L563.65-30.66Q562.56-30.66 561.63-30.24L561.63-30.24L561.63-30.24Q560.70-29.82 559.74-28.42L559.74-28.42L559.74-28.42Q557.38-25.22 556.03-17.79ZM604.29 1.28L604.29 1.28L604.29 1.28Q596.54 1.28 596.54-4.74L596.54-4.74L596.54-4.74Q596.61-6.40 597.12-9.22L597.12-9.22L598.27-15.10L598.27-15.10Q600.00-23.42 600.00-25.28L600.00-25.28L600.00-25.28Q600.00-28.99 597.82-28.99L597.82-28.99L597.82-28.99Q594.18-28.99 592.26-19.46L592.26-19.46L588.48 0L575.62 1.28L582.27-32.70L592.77-33.92L591.74-27.65L591.74-27.65Q594.75-33.92 603.97-33.92L603.97-33.92L603.97-33.92Q608.45-33.92 610.34-32.03L610.34-32.03L610.34-32.03Q612.22-30.14 612.22-25.92L612.22-25.92L612.22-25.92Q612.22-21.95 610.18-12.67L610.18-12.67L610.18-12.67Q609.22-8.51 609.22-6.94L609.22-6.94L609.22-6.94Q609.22-5.38 610.08-4.48L610.08-4.48L610.08-4.48Q610.94-3.58 612.22-3.46L612.22-3.46L612.22-3.46Q611.58-1.28 609.38 0L609.38 0L609.38 0Q607.17 1.28 604.29 1.28ZM618.37-6.40L618.37-6.40L618.37-6.40Q618.37-8.13 619.26-12.48L619.26-12.48L622.66-29.76L618.88-29.76L619.14-31.68L619.14-31.68Q626.82-33.98 634.24-39.62L634.24-39.62L637.31-39.62L635.78-32.64L640.77-32.64L640.19-29.76L635.26-29.76L632-12.48L632-12.48Q631.17-8.51 631.17-7.17L631.17-7.17L631.17-7.17Q631.17-4.10 633.86-3.46L633.86-3.46L633.86-3.46Q633.22-1.28 630.91 0L630.91 0L630.91 0Q628.61 1.28 625.34 1.28L625.34 1.28L625.34 1.28Q622.08 1.28 620.22-0.77L620.22-0.77L620.22-0.77Q618.37-2.82 618.37-6.40Z" fill="none" stroke="#cdae9f" stroke-width="5"></path></g></g><style>text {
  font-size: 64px;
  font-family: Arial Black;
  dominant-baseline: central;
  text-anchor: middle;
}</style></svg>